<svg height="160" viewBox="0 0 160 160" width="160" xmlns="http://www.w3.org/2000/svg"><g fill="none" fill-rule="evenodd"><circle cx="80" cy="80" r="74" stroke="#000" stroke-width="12"/><path d="m63.6236027 148.448076c0-1.872162-.0991217-8.079858-.0991217-14.681693-19.9234589 3.645789-25.0777866-4.828208-26.6637336-9.262277-.8920952-2.266301-4.7578409-9.262276-8.1279783-11.134438-2.7754072-1.478023-6.7402746-5.123812-.0991217-5.222347 6.2446663-.098535 10.7051422 5.715021 12.1919675 8.079858 7.1367614 11.922717 18.5357553 8.572532 23.0953529 6.5033.6938518-5.123812 2.7754072-8.572532 5.055206-10.543229-17.6436602-1.970697-36.0802939-8.769602-36.0802939-38.9212677 0-8.5725323 3.0727723-15.6670418 8.1279783-21.1849937-.7929735-1.970697-3.5683807-10.0505551.7929735-20.8893891 0 0 6.641153-2.0692319 21.806771 8.0798581 6.3437879-1.7736274 13.0840626-2.6604411 19.8243373-2.6604411 6.7402746 0 13.4805493.8868137 19.824337 2.6604411 15.165618-10.2476248 21.806771-8.0798581 21.806771-8.0798581 4.361354 10.838834 1.585947 18.9186921.792974 20.8893891 5.055206 5.5179519 8.127978 12.5139265 8.127978 21.1849937 0 30.2502007-18.535755 36.9505707-36.1794155 38.9212677 2.8745285 2.463371 5.3525715 7.193044 5.3525715 14.583158 0 10.54323-.099122 19.017227-.099122 21.677668 0 2.069232-39.4504313 2.069232-39.4504313 0z" fill="#000" fill-rule="nonzero"/></g></svg>